<svg xmlns="http://www.w3.org/2000/svg" width="192" height="192" viewBox="0 0 52 52" fill="#FFFFFF">
<rect width="192" height="192" fill="#FFFFFF"/>
<path d="M16.1527 4.45414C15.9739 4.01884 16.1799 3.52134 16.6152 3.34255C17.0505 3.16376 17.548 3.36976 17.7268 3.80507L20.7817 12.3636C20.8672 12.5657 20.7701 12.8028 20.5641 12.8844C20.3581 12.966 20.1249 12.8727 20.0433 12.6667L16.1527 4.45414ZM3.80079 17.7272L12.3593 20.7821C12.5614 20.8676 12.7985 20.7705 12.8801 20.5645C12.9656 20.3624 12.8684 20.1253 12.6624 20.0437L4.44986 16.1531C4.01455 15.9743 3.51706 16.1803 3.33827 16.6156C3.15948 17.0509 3.36548 17.5484 3.80079 17.7272ZM12.8801 31.4355C12.7946 31.2334 12.5614 31.1363 12.3593 31.2179L3.80079 34.2728C3.36548 34.4516 3.15948 34.953 3.33827 35.3844C3.51706 35.8197 4.01844 36.0257 4.44986 35.8469L12.6624 31.9564C12.8645 31.8708 12.9617 31.6376 12.8801 31.4355ZM20.568 39.1195C20.3659 39.034 20.1288 39.1312 20.0471 39.3372L16.1566 47.5497C15.9778 47.9851 16.1838 48.4826 16.6191 48.6613C17.0544 48.8401 17.5519 48.6341 17.7307 48.1988L20.7856 39.6403C20.8711 39.4382 20.774 39.2011 20.568 39.1195ZM31.956 39.3333C31.8704 39.1312 31.6372 39.034 31.4351 39.1156C31.233 39.2011 31.1359 39.4343 31.2175 39.6364L34.2724 48.1949C34.4512 48.6302 34.9526 48.8362 35.384 48.6575C35.8193 48.4787 36.0253 47.9773 35.8465 47.5459L31.956 39.3333ZM48.1984 34.2728L39.6399 31.2179C39.4378 31.1324 39.2007 31.2295 39.1191 31.4355C39.0336 31.6376 39.1308 31.8747 39.3368 31.9564L47.5493 35.8469C47.9846 36.0257 48.4821 35.8197 48.6609 35.3844C48.8397 34.9491 48.6337 34.4516 48.1984 34.2728ZM39.1191 20.5645C39.2046 20.7666 39.4378 20.8637 39.6399 20.7821L48.1984 17.7272C48.6337 17.5484 48.8397 17.047 48.6609 16.6156C48.4821 16.1803 47.9808 15.9743 47.5493 16.1531L39.3368 20.0437C39.1347 20.1292 39.0375 20.3624 39.1191 20.5645ZM31.4351 12.8805C31.6372 12.966 31.8743 12.8688 31.956 12.6628L35.8465 4.45026C36.0253 4.01495 35.8193 3.51745 35.384 3.33867C34.9487 3.15988 34.4512 3.36587 34.2724 3.80118L31.2175 12.3597C31.132 12.5618 31.2291 12.7989 31.4351 12.8805ZM19.367 19.3674C20.4552 18.2791 21.8117 17.459 23.3236 17.0081L23.8095 13.3275C21.6912 13.6928 19.7479 14.5751 18.1155 15.8421L11.1155 10.4785C11.0728 10.4474 11.0261 10.4319 10.9756 10.4319C10.9134 10.4319 10.8474 10.4591 10.8046 10.5096C10.7269 10.599 10.7308 10.735 10.8124 10.8205L19.3592 19.3674H19.367ZM34.9915 23.324L38.6721 23.8099C38.3068 21.6916 37.4245 19.7483 36.1575 18.1159L41.5211 11.1198C41.5949 11.0226 41.5794 10.8866 41.49 10.8089C41.4472 10.77 41.3928 10.7506 41.3384 10.7506C41.2801 10.7506 41.2218 10.7739 41.1791 10.8167L32.6322 19.3635C33.7205 20.4518 34.5406 21.8082 34.9915 23.3201V23.324ZM33.876 15.846C32.2475 14.579 30.308 13.6928 28.1898 13.3313L26.4563 0.198221C26.4407 0.0855071 26.3436 0 26.2309 0C26.227 0 26.2192 0 26.2153 0C26.0948 0.00777338 26.0015 0.108827 26.0015 0.229315V16.6195C27.8361 16.6195 29.5462 17.1481 30.9921 18.0576L33.8799 15.846H33.876ZM17.0077 28.676L13.3271 28.1901C13.6924 30.3123 14.5747 32.2517 15.8417 33.8841L10.4781 40.8802C10.4043 40.9774 10.4198 41.1134 10.5092 41.1911C10.552 41.23 10.6064 41.2494 10.6608 41.2494C10.7191 41.2494 10.7774 41.2261 10.8201 41.1833L19.367 32.6365C18.2787 31.5483 17.4586 30.1918 17.0077 28.6799V28.676ZM51.7703 25.9981H35.3801C35.3801 27.8326 34.8515 29.5427 33.942 30.9886L36.1536 33.8764C37.4167 32.2479 38.3068 30.3084 38.6683 28.1901L51.7975 26.4567C51.918 26.4411 52.0035 26.3362 51.9957 26.2157C51.9879 26.0952 51.8869 26.0019 51.7664 26.0019L51.7703 25.9981ZM18.0572 21.0076L15.8456 18.1197C14.5786 19.7483 13.6924 21.6877 13.3309 23.806L0.197826 25.5433C0.0773389 25.5589 -0.00816825 25.6638 -0.000394872 25.7843C0.0073785 25.9048 0.108432 25.9981 0.22892 25.9981H16.6191C16.6191 24.1635 17.1477 22.4534 18.0572 21.0076ZM37.7627 37.7592L32.6361 32.6326C31.5478 33.7209 30.1914 34.541 28.6795 34.9919L28.1936 38.6726C30.3119 38.3072 32.2552 37.4249 33.8876 36.1579L40.8837 41.5215C40.9264 41.5526 40.9731 41.5681 41.0236 41.5681C41.0858 41.5681 41.1519 41.5409 41.1946 41.4904C41.2723 41.401 41.2685 41.265 41.1868 41.1795L37.7665 37.7592H37.7627ZM18.1232 36.154C19.7518 37.421 21.6912 38.3072 23.8095 38.6687L25.5429 51.7979C25.5585 51.9106 25.6556 51.9961 25.7683 51.9961C25.7722 51.9961 25.78 51.9961 25.7839 51.9961C25.9044 51.9883 25.9977 51.8873 25.9977 51.7668V35.3766C24.1631 35.3766 22.453 34.848 21.0072 33.9386L18.1193 36.1501L18.1232 36.154ZM33.8254 25.9981C33.8254 25.8776 33.7283 25.7804 33.6078 25.7804C28.7235 25.7389 26.2607 23.2761 26.2192 18.3918C26.2192 18.2713 26.122 18.1742 26.0015 18.1742C25.8811 18.1742 25.7839 18.2713 25.7839 18.3918C25.7424 23.2761 23.2796 25.7389 18.3953 25.7804C18.2748 25.7804 18.1776 25.8776 18.1776 25.9981C18.1776 26.1185 18.2748 26.2157 18.3953 26.2157C23.2796 26.2572 25.7424 28.72 25.7839 33.6043C25.7839 33.7248 25.8811 33.822 26.0015 33.822C26.122 33.822 26.2192 33.7248 26.2192 33.6043C26.2607 28.72 28.7235 26.2572 33.6078 26.2157C33.7283 26.2157 33.8254 26.1185 33.8254 25.9981Z" fill="#211D1A" fill-opacity="0.8"/>
</svg>